#!OML:ASF H:\Terrain\Patient Classification 1\Animal2\Wednesday\Animal2.ASF
:FULLY-SPECIFIED
:DEGREES
1622
root 15.1633 16.3642 -2.51768 -1.8524 -16.7361 -1.70178
lowerback 3.75288 2.65968 4.78241
upperback -3.48634 3.8892 0.659344
thorax -5.45959 1.74728 -2.30662
lowerneck 5.59131 4.97126 16.5574
upperneck -13.8206 6.01767 -19.9762
head -3.71357 3.34923 -9.42767
rclavicle -4.00054e-015 6.75868e-015
rhumerus -35.7438 -0.90921 -79.6674
rradius 115.731
rwrist -17.5184
rhand -16.3704 1.66192
rfingers 7.12502
rthumb 9.84282 -28.088
lclavicle -4.00054e-015 6.75868e-015
lhumerus -58.3888 21.6775 42.3558
lradius 116.347
lwrist -17.8346
lhand 10.4415 24.4684
lfingers 7.12502
lthumb 35.5449 50.8955
rfemur -19.8763 15.8015 6.23064
rtibia 51.1881
rfoot -29.6638 -1.02459
rtoes -31.9551
lfemur -3.3865 -0.856782 -2.85067
ltibia 44.2326
lfoot -27.1237 12.7503
ltoes -42.933
1623
root 15.2055 16.3661 -2.52375 -1.97401 -16.5352 -1.50342
lowerback 3.67887 2.20923 4.41113
upperback -3.38768 3.2555 0.638113
thorax -5.37553 1.45169 -2.06899
lowerneck 5.58778 5.25888 16.6976
upperneck -13.9152 6.39201 -20.2308
head -3.64842 3.54099 -9.54061
rclavicle -2.17918e-014 -7.7526e-015
rhumerus -36.1016 -1.26778 -79.2109
rradius 115.614
rwrist -17.2547
rhand -15.6399 1.85293
rfingers 7.12502
rthumb 10.5476 -27.8624
lclavicle -2.17918e-014 -7.7526e-015
lhumerus -57.369 21.5626 43.18
lradius 116.265
lwrist -17.8655
lhand 9.98341 24.7243
lfingers 7.12502
lthumb 35.1106 51.2544
rfemur -19.7738 16.1461 5.92499
rtibia 51.2162
rfoot -29.3221 -1.96624
rtoes -33.4714
lfemur -3.38296 -0.949678 -3.21971
ltibia 44.1394
lfoot -27.7444 11.5489
ltoes -40.1903
1624
root 15.2451 16.3754 -2.52826 -2.04135 -16.2323 -1.26623
lowerback 3.62927 1.77973 3.93936
upperback -3.36002 2.647 0.591189
thorax -5.37413 1.16841 -1.80633
lowerneck 5.72052 5.43485 16.9638
upperneck -14.1031 6.62581 -20.5718
head -3.65102 3.66839 -9.71822
rclavicle -3.37934e-015 8.34896e-015
rhumerus -36.5627 -1.77679 -78.6417
rradius 115.478
rwrist -16.8856
rhand -15.1204 2.10137
rfingers 7.12502
rthumb 11.0487 -27.5878
lclavicle -3.37934e-015 8.34896e-015
lhumerus -56.3983 21.2314 43.7729
lradius 116.237
lwrist -18.4478
lhand 10.7226 24.3352
lfingers 7.12502
lthumb 35.8113 50.6978
rfemur -19.7187 16.5289 5.55741
rtibia 51.228
rfoot -28.9227 -2.48482
rtoes -33.9786
lfemur -3.5008 -1.14769 -3.64813
ltibia 44.0821
lfoot -28.8149 10.1144
ltoes -35.0884
1625
root 15.2802 16.376 -2.55225 -1.70895 -15.445 -1.14418
lowerback 3.37279 1.2373 3.41066
upperback -3.46148 1.88136 0.597774
thorax -5.39284 0.808685 -1.43936
lowerneck 6.01115 5.50307 17.1472
upperneck -14.4923 6.71611 -20.7817
head -3.77785 3.72834 -9.85682
rclavicle -4.83544e-014 -1.07344e-014
rhumerus -37.0956 -2.25575 -78.0863
rradius 115.54
rwrist -16.8819
rhand -15.4637 2.13696
rfingers 7.12502
rthumb 10.7175 -27.5697
lclavicle -4.83544e-014 -1.07344e-014
lhumerus -55.549 20.7533 44.6356
lradius 116.166
lwrist -19.0142
lhand 10.7204 24.0497
lfingers 7.12502
lthumb 35.8093 50.4128
rfemur -19.9588 16.5869 5.26905
rtibia 51.28
rfoot -28.5033 -3.52656
rtoes -35.5009
lfemur -4.32884 -1.45505 -3.81141
ltibia 44.0733
lfoot -29.0787 9.88558
ltoes -34.4855
1626
root 15.3219 16.3758 -2.55783 -1.73657 -14.9413 -1.13101
lowerback 3.13318 0.726828 3.13012
upperback -3.25437 1.17186 0.68266
thorax -5.07894 0.477229 -1.13421
lowerneck 6.18218 5.68047 16.9567
upperneck -15.0814 6.89445 -20.8049
head -3.94854 3.83376 -9.86852
rclavicle -4.08751e-014 6.55989e-015
rhumerus -37.3447 -2.46648 -77.5771
rradius 115.679
rwrist -17.4151
rhand -16.0616 1.73647
rfingers 7.12502
rthumb 10.1407 -27.9992
lclavicle -4.08751e-014 6.55989e-015
lhumerus -54.4333 20.5533 45.8442
lradius 115.95
lwrist -19.2753
lhand 9.59327 23.789
lfingers 7.12502
lthumb 34.7405 50.4052
rfemur -19.7574 16.9747 5.13886
rtibia 51.3339
rfoot -28.3135 -3.30704
rtoes -34.6085
lfemur -4.51742 -1.51616 -3.91278
ltibia 44.0031
lfoot -28.8311 10.8934
ltoes -37.2371
1627
root 15.3599 16.3861 -2.5676 -1.79461 -14.2761 -1.03994
lowerback 2.97282 0.161307 2.71281
upperback -3.03948 0.386184 0.753173
thorax -4.79705 0.109907 -0.768873
lowerneck 6.01738 5.9411 16.7907
upperneck -15.451 7.16053 -20.8778
head -3.97465 3.96961 -9.87166
rclavicle -2.68608e-014 -7.95139e-016
rhumerus -37.3475 -2.66971 -77.0248
rradius 115.763
rwrist -18.0902
rhand -16.1193 1.08818
rfingers 7.12502
rthumb 10.085 -28.6502
lclavicle -2.68608e-014 -7.95139e-016
lhumerus -53.1059 20.2832 47.013
lradius 115.768
lwrist -19.3762
lhand 9.18991 23.1431
lfingers 7.12502
lthumb 34.3576 49.8468
rfemur -19.5315 17.3292 4.94557
rtibia 51.4387
rfoot -27.9765 -2.20845
rtoes -31.1112
lfemur -4.79683 -1.67128 -4.09192
ltibia 43.9401
lfoot -28.972 10.9523
ltoes -37.0734
